# xmcd CD database file
# Copyright (C) 1993-1998 Ti Kan
# 
# Track frame offsets:
#     150
#     12427
#     25606
#     42301
#     58371
#     78740
#     93544
#     104399
#     117734
#     127121
#     144174
#     156436
# 
# Disc length: 2379 seconds
# 
# Revision: 1
# Processed by: cddbd v1.4b41PL1 Copyright (c) Steve Scherf et al.
# Submitted via: DiscPlay 4.0.4
# 
DISCID=ab09490c
DTITLE=Graham Bleasdale - Merry Christmas To You
DYEAR=1900
DGENRE=
TTITLE0=Light of The Stable
TTITLE1=Winter Wonderland
TTITLE2=The Christmas Song
TTITLE3=What Goes Around Always Comes Around
TTITLE4=Silent Night
TTITLE5=White Christmas
TTITLE6=Santa Claus Is Coming To Town
TTITLE7=Pretty Paper
TTITLE8=Rockin' Around The Christmas Tree
TTITLE9=I'll Be Home For Christmas
TTITLE10=Go Tell It On The Mountain
TTITLE11=My Grown-up Christmas List
EXTD=
EXTT0=
EXTT1=
EXTT2=
EXTT3=
EXTT4=
EXTT5=
EXTT6=
EXTT7=
EXTT8=
EXTT9=
EXTT10=
EXTT11=
PLAYORDER=
